<svg width="205" height="205" xmlns="http://www.w3.org/2000/svg" xmlns:xlink="http://www.w3.org/1999/xlink" overflow="hidden"><defs><clipPath id="clip0"><rect x="0" y="0" width="205" height="205"/></clipPath></defs><g clip-path="url(#clip0)"><path d="M113.711 61.9271C96.0205 61.9271 81.6797 76.2679 81.6797 93.9583 81.6797 94.663 81.6797 95.3464 81.6797 96.0938 97.5226 88.3832 116.616 94.9756 124.327 110.819 126.156 114.577 127.229 118.657 127.484 122.829 143.429 115.167 150.144 96.0299 142.482 80.085 137.164 69.0184 125.989 61.9653 113.711 61.9271ZM135.065 91.8229C133.886 91.8229 132.93 90.8669 132.93 89.6875 132.93 81.432 126.237 74.7396 117.982 74.7396 116.802 74.7396 115.846 73.7836 115.846 72.6042 115.846 71.4248 116.802 70.4688 117.982 70.4688 128.596 70.4688 137.201 79.0732 137.201 89.6875 137.201 90.8669 136.244 91.8229 135.065 91.8229Z" fill="#7030A0"/><path d="M95.5599 97.1615C80.2282 97.1615 67.7995 109.59 67.7995 124.922 67.7995 140.254 80.2282 152.682 95.5599 152.682 110.892 152.682 123.32 140.254 123.32 124.922 123.32 109.59 110.892 97.1615 95.5599 97.1615ZM112.643 122.786C111.464 122.786 110.508 121.83 110.508 120.651 110.508 114.754 105.727 109.974 99.8307 109.974 98.6513 109.974 97.6953 109.018 97.6953 107.839 97.6953 106.659 98.6513 105.703 99.8307 105.703 108.086 105.703 114.779 112.396 114.779 120.651 114.779 121.83 113.823 122.786 112.643 122.786Z" fill="#7030A0"/><path d="M52.8516 62.9948C42.2373 62.9948 33.6328 71.5992 33.6328 82.2135 33.6328 92.8279 42.2373 101.432 52.8516 101.432 63.4659 101.432 72.0703 92.8279 72.0703 82.2135 72.0703 71.5992 63.4659 62.9948 52.8516 62.9948ZM62.4609 81.1458C61.2816 81.1458 60.3255 80.1898 60.3255 79.0104 60.3255 76.6516 58.4135 74.7396 56.0547 74.7396 54.8753 74.7396 53.9193 73.7836 53.9193 72.6042 53.9193 71.4248 54.8753 70.4688 56.0547 70.4688 60.772 70.4688 64.5964 74.2931 64.5964 79.0104 64.5964 80.1898 63.6403 81.1458 62.4609 81.1458Z" fill="#7030A0"/><path d="M157.487 144.141C145.693 144.141 136.133 153.701 136.133 165.495 136.133 177.288 145.693 186.849 157.487 186.849 169.281 186.849 178.841 177.288 178.841 165.495 178.841 153.701 169.281 144.141 157.487 144.141ZM168.164 164.79C166.789 164.779 165.677 163.667 165.666 162.292 165.666 159.544 163.438 157.316 160.69 157.316 159.31 157.316 158.192 156.198 158.192 154.818 158.192 153.438 159.31 152.319 160.69 152.319 166.193 152.331 170.651 156.789 170.663 162.292 170.651 163.667 169.539 164.779 168.164 164.79Z" fill="#7030A0"/><path d="M168.634 48.0469C168.634 56.5618 161.731 63.4646 153.216 63.4646 144.701 63.4646 137.798 56.5618 137.798 48.0469 137.798 39.5319 144.701 32.6292 153.216 32.6292 161.731 32.6292 168.634 39.5319 168.634 48.0469Z" fill="#7030A0"/><path d="M61.3932 159.089C61.3932 168.523 53.7448 176.172 44.3099 176.172 34.875 176.172 27.2266 168.523 27.2266 159.089 27.2266 149.654 34.875 142.005 44.3099 142.005 53.7448 142.005 61.3932 149.654 61.3932 159.089Z" fill="#7030A0"/><path d="M86.4203 30.9635C86.4203 38.2991 80.4736 44.2458 73.138 44.2458 65.8024 44.2458 59.8557 38.2991 59.8557 30.9635 59.8557 23.6279 65.8024 17.6812 73.138 17.6812 80.4736 17.6812 86.4203 23.6279 86.4203 30.9635Z" fill="#7030A0"/><path d="M43.2422 41.6406C43.2422 45.1787 40.374 48.0469 36.8359 48.0469 33.2979 48.0469 30.4297 45.1787 30.4297 41.6406 30.4297 38.1026 33.2979 35.2344 36.8359 35.2344 40.374 35.2344 43.2422 38.1026 43.2422 41.6406Z" fill="#7030A0"/><path d="M171.367 124.922C171.367 128.46 168.499 131.328 164.961 131.328 161.423 131.328 158.555 128.46 158.555 124.922 158.555 121.384 161.423 118.516 164.961 118.516 168.499 118.516 171.367 121.384 171.367 124.922Z" fill="#7030A0"/><path d="M85.9505 171.901C85.9505 175.439 83.0823 178.307 79.5443 178.307 76.0062 178.307 73.138 175.439 73.138 171.901 73.138 168.363 76.0062 165.495 79.5443 165.495 83.0823 165.495 85.9505 168.363 85.9505 171.901Z" fill="#7030A0"/></g></svg>