<svg id="Layer_1" data-name="Layer 1" xmlns="http://www.w3.org/2000/svg" viewBox="0 0 410 129"><defs><style>.cls-1,.cls-3{fill:none;stroke:#662d91;stroke-miterlimit:10;}.cls-1{stroke-width:6px;}.cls-2{fill:#231f20;}.cls-3{stroke-width:2px;}</style></defs><ellipse class="cls-1" cx="205" cy="64.5" rx="202" ry="61.5"/><path class="cls-2" d="M145.89,91.7a4.12,4.12,0,0,1-1.41,1.12,3.43,3.43,0,0,1-1.52.43l-1,0-1.2,0-1.21,0-1,0a24.09,24.09,0,0,0-3.7.29c-1.28.19-2.55.44-3.83.74s-2.53.63-3.77,1l-3.53,1c-1.1.3-2.13.55-3.08.74a12.19,12.19,0,0,1-2.45.3,4,4,0,0,1-2.59-.77,2.48,2.48,0,0,1-1-1.81,13.63,13.63,0,0,1,0-1.57c0-.61.11-1.28.22-2s.24-1.48.39-2.29.31-1.61.5-2.44c.11-.56.25-1.28.43-2.16s.34-1.81.51-2.78.32-1.91.47-2.82.27-1.67.36-2.26q.3-2,.57-3.63c.17-1.08.34-2.12.49-3.11s.31-2,.46-3,.29-2.17.42-3.45.18-2.61.23-3.7a13.84,13.84,0,0,1,.36-2.75,3.44,3.44,0,0,1,.94-1.72,2.87,2.87,0,0,1,2-.59,2.5,2.5,0,0,1,1.28.3,2.7,2.7,0,0,1,.85.8,3.78,3.78,0,0,1,.49,1.14,7,7,0,0,1,.22,1.27,6,6,0,0,1-.18,1.24c-.13.7-.31,1.58-.53,2.62s-.47,2.2-.75,3.47-.55,2.56-.82,3.87-.51,2.58-.74,3.8-.41,2.3-.54,3.22-.25,1.69-.4,2.62-.32,1.87-.49,2.82-.33,1.89-.5,2.83-.31,1.83-.44,2.65-.23,1.55-.29,2.21a8.58,8.58,0,0,0,0,1.56,1.64,1.64,0,0,0,.41.91,1.22,1.22,0,0,0,1,.42,10,10,0,0,0,1.68-.18c.67-.12,1.39-.28,2.15-.47s1.55-.41,2.34-.64l2.27-.65c.16-.05.48-.13.95-.23l1.63-.35,2-.39,2-.36,1.64-.27a6.72,6.72,0,0,1,1-.11,7.83,7.83,0,0,0,1-.09c.43,0,.93-.1,1.48-.13s1.15-.06,1.8-.06a10.52,10.52,0,0,1,1.93.19,1.21,1.21,0,0,1,.75.49,1.69,1.69,0,0,1,.28.87,3.45,3.45,0,0,1-.11,1A2.7,2.7,0,0,1,145.89,91.7Z" transform="translate(-48.37 -30.49)"/><path class="cls-2" d="M185.85,74.14a3.6,3.6,0,0,1-.6,1.47,39.58,39.58,0,0,1-2.76,3.81,53.89,53.89,0,0,1-3.65,4.11,57.74,57.74,0,0,1-4.26,4A39.57,39.57,0,0,1,170,90.86a27.65,27.65,0,0,1-4.59,2.34,11.9,11.9,0,0,1-4.32.88h-.19q-4.74,0-7.08-2.71c-1.57-1.81-2.35-4.32-2.35-7.55a29.75,29.75,0,0,1,.3-4.09,24,24,0,0,1,3.14-8.84,23.27,23.27,0,0,1,3.33-4.3,12.28,12.28,0,0,1,3.21-2.34,7.41,7.41,0,0,1,3.18-.81,1.86,1.86,0,0,1,.58.11,4.5,4.5,0,0,1,1.45.73,4.1,4.1,0,0,1,.6.57,7.63,7.63,0,0,1,1.13,1.91,5.72,5.72,0,0,1,.36,2.13,9.16,9.16,0,0,1-.44,2.91,11.1,11.1,0,0,1-1.27,2.56A18.7,18.7,0,0,1,165,76.87c-.81.83-1.74,1.74-2.79,2.72-.35.33-.77.7-1.25,1.11s-1,.83-1.55,1.27l-1.71,1.38L156,84.76c.14,3.3,2,4.95,5.5,4.95a14.69,14.69,0,0,0,6.25-1.55,19.38,19.38,0,0,0,3-1.78c.94-.67,1.87-1.36,2.77-2.06.44-.35.93-.77,1.47-1.25s1.08-1,1.64-1.52l1.69-1.6,1.59-1.52c.31-.32.65-.65,1-1l1.15-1.13,1.49-1.5a3.94,3.94,0,0,1,2-1.18C185.74,73.62,185.85,73.79,185.85,74.14ZM164.56,70a2.49,2.49,0,0,0-.44-1.45,1.32,1.32,0,0,0-1.08-.62,2.74,2.74,0,0,0-1.21.39,5.5,5.5,0,0,0-1.56,1.38,19.1,19.1,0,0,0-2.87,4.94,25.23,25.23,0,0,0-1.66,6.43c1.16-1,2.14-1.78,2.94-2.52s1.53-1.43,2.17-2.08q.66-.66,1.32-1.41a14.07,14.07,0,0,0,1.19-1.57,9,9,0,0,0,.87-1.72A5,5,0,0,0,164.56,70Z" transform="translate(-48.37 -30.49)"/><path class="cls-2" d="M224.69,74.89a7.31,7.31,0,0,1-1.14,2.76c-.37.65-.72,1.23-1.06,1.76s-.66,1-1,1.37q-3.54,4.53-5.86,7.11a24.77,24.77,0,0,1-5.15,4.34,11.24,11.24,0,0,1-6,1.74q-4.4,0-10.92-6a18.86,18.86,0,0,0-3.6,3.64,16.59,16.59,0,0,0-1.85,3.2c-.18.46-.38,1-.58,1.5s-.42,1.14-.64,1.79a10.21,10.21,0,0,1-1.21,2.74,4.38,4.38,0,0,1-2.81-1,3.39,3.39,0,0,1-1-2.66,5.43,5.43,0,0,1,.22-1.52,8.36,8.36,0,0,1,.62-1.55,16.19,16.19,0,0,1,.91-1.53,15.77,15.77,0,0,1,1.1-1.45c.79-.91,1.81-2,3.07-3.41s2-2.23,2.4-2.65c-.2-.26-.41-.51-.63-.76s-.45-.5-.67-.76l-.69-.83q-.36-.45-.69-.9L187,81a8.35,8.35,0,0,1-.44-.75c-1.62-2.89-2.44-5.13-2.44-6.69a4,4,0,0,1,.83-2.71,3.21,3.21,0,0,1,2.58-1,1.39,1.39,0,0,1,1,.33,2.36,2.36,0,0,1,.75,1.22,3.31,3.31,0,0,1,.16.73c0,.29.08.6.11,1a10.39,10.39,0,0,0,.28,1.79,12.93,12.93,0,0,0,1.44,3.79,15.93,15.93,0,0,0,2.68,3.18,55,55,0,0,0,4.15-4.31,14,14,0,0,0,1.69-2.34,21.55,21.55,0,0,0,1.35-2.81c.22-.48.42-.87.58-1.17a3.54,3.54,0,0,1,.51-.73,1.43,1.43,0,0,1,.57-.38,2.53,2.53,0,0,1,.72-.09,3.08,3.08,0,0,1,2.68,1.74,2.41,2.41,0,0,1,.28,1.08,4.85,4.85,0,0,1-1,2.32l-.49.59c-.17.22-.36.44-.57.68l-.56.64-.54.61c-.19.2-.38.42-.58.65l-.67.76c-.64.83-1.36,1.69-2.17,2.6s-1.7,1.88-2.69,2.93a23.5,23.5,0,0,0,4.59,3.37,9.74,9.74,0,0,0,4.48,1.5A7.5,7.5,0,0,0,210.59,88a31.55,31.55,0,0,0,4.83-4.37q1.19-1.26,2.46-2.79c.85-1,1.73-2.11,2.66-3.29Q223.27,74,223.63,74a1.14,1.14,0,0,1,.76.24A.74.74,0,0,1,224.69,74.89Z" transform="translate(-48.37 -30.49)"/><path class="cls-2" d="M241.28,86.14a2.69,2.69,0,0,1-.32,1.08,9.4,9.4,0,0,1-.91,1.47,18.28,18.28,0,0,1-1.44,1.67A15.3,15.3,0,0,1,236.72,92c-.39.29-.89.64-1.51,1a16.17,16.17,0,0,1-2.13,1.15,16.66,16.66,0,0,1-2.64.91,12.25,12.25,0,0,1-3.1.37,6.94,6.94,0,0,1-3.35-.77,7,7,0,0,1-2.32-2,8.79,8.79,0,0,1-1.36-2.84,12.21,12.21,0,0,1-.44-3.23,32.28,32.28,0,0,1,.29-4.17c.2-1.46.41-2.83.65-4.11s.46-2.39.67-3.33a11.65,11.65,0,0,0,.3-1.85,7.53,7.53,0,0,1,.1-1.19,5,5,0,0,1,.34-1.25,2.87,2.87,0,0,1,.68-1,1.57,1.57,0,0,1,1.07-.38,3.88,3.88,0,0,1,1.31.2,2.94,2.94,0,0,1,.89.52,2.25,2.25,0,0,1,.51.63,1.39,1.39,0,0,1,.16.61,7.38,7.38,0,0,1-.43,2.17c-.28.9-.6,1.91-.94,3.06s-.65,2.39-.94,3.74a21.13,21.13,0,0,0-.43,4.28c0,.74.05,1.51.13,2.33a8.6,8.6,0,0,0,.52,2.26,4.3,4.3,0,0,0,1.18,1.7,3.1,3.1,0,0,0,2.1.68,8.05,8.05,0,0,0,2.28-.35,14,14,0,0,0,2.28-.88,18.12,18.12,0,0,0,2.08-1.18c.64-.42,1.21-.82,1.69-1.19l1.31-1.09c.4-.34.76-.64,1.09-.9a7.76,7.76,0,0,1,.89-.62,1.36,1.36,0,0,1,.69-.24c.42,0,.69.11.79.33A1.79,1.79,0,0,1,241.28,86.14ZM231.85,55.5a4.59,4.59,0,0,1-.11.8c-.08.35-.17.73-.29,1.14s-.26.8-.4,1.2-.29.73-.42,1a2.12,2.12,0,0,1-.63.76,5,5,0,0,1-1,.59,5.59,5.59,0,0,1-1.05.39,3.68,3.68,0,0,1-.86.14.53.53,0,0,1-.39-.14.9.9,0,0,1-.21-.36,3.21,3.21,0,0,1-.09-.5c0-.18,0-.36-.06-.52l-.14-.86a1.28,1.28,0,0,0-.15-.43l-.21-.4a3.71,3.71,0,0,1-.19-.54,3.22,3.22,0,0,1-.08-.84,2,2,0,0,1,.29-1,3.67,3.67,0,0,1,.79-1,4.66,4.66,0,0,1,1.17-.77,3.34,3.34,0,0,1,1.48-.32A2.12,2.12,0,0,1,230,54a5,5,0,0,1,.85.39,4,4,0,0,1,.73.52A.84.84,0,0,1,231.85,55.5Z" transform="translate(-48.37 -30.49)"/><path class="cls-2" d="M289.25,131.45a4.24,4.24,0,0,1-1.41,1.12,3.57,3.57,0,0,1-1.52.43h-1l-1.2,0-1.21,0-1,0a25.2,25.2,0,0,0-3.7.29c-1.28.19-2.56.44-3.83.75s-2.53.62-3.77,1l-3.53,1c-1.11.31-2.13.55-3.08.75a12.86,12.86,0,0,1-2.45.29,4,4,0,0,1-2.59-.76,2.49,2.49,0,0,1-1-1.81,10.36,10.36,0,0,1,0-1.58c0-.61.11-1.27.22-2s.24-1.48.39-2.28.31-1.62.5-2.45c.11-.55.25-1.27.43-2.16s.34-1.81.51-2.78.32-1.91.47-2.82.27-1.66.36-2.25c.2-1.35.39-2.56.57-3.64s.34-2.11.49-3.11.31-2,.46-3,.28-2.17.41-3.44.19-2.62.24-3.71a14,14,0,0,1,.36-2.75,3.36,3.36,0,0,1,.94-1.71,2.86,2.86,0,0,1,2-.6,2.51,2.51,0,0,1,1.29.3,2.6,2.6,0,0,1,.84.81,3.74,3.74,0,0,1,.5,1.13,7,7,0,0,1,.22,1.27,6.07,6.07,0,0,1-.18,1.25q-.21,1-.54,2.61l-.74,3.47c-.28,1.27-.55,2.57-.82,3.87s-.52,2.58-.75,3.81-.41,2.3-.53,3.22-.25,1.68-.41,2.61-.31,1.87-.48,2.82-.33,1.9-.5,2.84-.31,1.82-.44,2.64-.23,1.56-.29,2.21a7.77,7.77,0,0,0,0,1.56,1.6,1.6,0,0,0,.41.92,1.23,1.23,0,0,0,1,.41,9.84,9.84,0,0,0,1.67-.18c.68-.12,1.4-.27,2.16-.47s1.55-.4,2.34-.63l2.27-.65a8.14,8.14,0,0,1,.95-.24l1.63-.34,2-.39,2-.36,1.64-.28a8.48,8.48,0,0,1,1-.11,9.83,9.83,0,0,0,1-.08c.43-.06.92-.1,1.48-.14s1.15-.06,1.79-.06a9.83,9.83,0,0,1,1.94.2,1.15,1.15,0,0,1,.75.48,1.69,1.69,0,0,1,.27.87,2.83,2.83,0,0,1-.11,1A2.54,2.54,0,0,1,289.25,131.45Z" transform="translate(-48.37 -30.49)"/><path class="cls-2" d="M333.53,110.34a2,2,0,0,1-.33,1,7.46,7.46,0,0,1-.86,1.12,11.56,11.56,0,0,1-1.19,1.1c-.44.36-.89.7-1.33,1s-.86.57-1.26.8a8.65,8.65,0,0,1-1,.51,9.12,9.12,0,0,1-1.89.54c-.79.16-1.6.29-2.45.4s-1.68.2-2.49.27-1.49.09-2.05.09a4.66,4.66,0,0,1-.91-.11c-.39-.07-.78-.16-1.19-.27a11.92,11.92,0,0,1-1.15-.38,2.48,2.48,0,0,1-.78-.43c.16.7.31,1.41.44,2.12a12.17,12.17,0,0,1,.19,2.2,7.66,7.66,0,0,1-.12,1.22c-.09.47-.2,1-.33,1.45s-.3,1-.46,1.41a6.2,6.2,0,0,1-.53,1.12,21.76,21.76,0,0,1-1.48,2.21,12.36,12.36,0,0,1-1.71,1.84,17.23,17.23,0,0,1-2.14,1.59,22.41,22.41,0,0,1-2.74,1.44,15,15,0,0,1-3.34,1,20.56,20.56,0,0,1-3.47.29,3.25,3.25,0,0,1-2-.67,5.38,5.38,0,0,1-1.49-1.78,10.24,10.24,0,0,1-.93-2.59,14.53,14.53,0,0,1-.31-3.07,8.56,8.56,0,0,1,.07-1c0-.4.11-.82.19-1.24s.17-.83.26-1.22.19-.72.28-1a23.22,23.22,0,0,1,1.11-2.65,31.31,31.31,0,0,1,1.68-3.06,35.67,35.67,0,0,1,2.16-3.07,22.27,22.27,0,0,1,2.49-2.69,12,12,0,0,1,2.71-1.91,6.15,6.15,0,0,1,2.82-.72,1.81,1.81,0,0,1,.76.14,1.64,1.64,0,0,1,.5.36,2.84,2.84,0,0,1,.37.47,5.28,5.28,0,0,0,.39.5.27.27,0,0,0,.25.13,1.61,1.61,0,0,0,.55-.11,2.47,2.47,0,0,1,.75-.11,2.23,2.23,0,0,1,1.3.68c.51.45,1.05,1,1.62,1.49s1.12,1,1.68,1.5a2.53,2.53,0,0,0,1.51.67c.5,0,1,0,1.6,0s1.16,0,1.75-.1,1.17-.11,1.74-.18,1.1-.16,1.58-.25l.91-.25,1.67-.45,2-.57,2-.57,1.51-.43a6.12,6.12,0,0,1,.64-.16.53.53,0,0,1,.31.08A.34.34,0,0,1,333.53,110.34ZM312,114.77a2.94,2.94,0,0,0-.65-1.08,6.56,6.56,0,0,0-2.42-1.62,3.85,3.85,0,0,0-1.31-.26,2.85,2.85,0,0,0-1,.17,5.91,5.91,0,0,0-.93.42,8.32,8.32,0,0,0-.87.59l-.78.59a10.4,10.4,0,0,0-2.06,2.56,24.15,24.15,0,0,0-1.71,3.54,29.2,29.2,0,0,0-1.18,3.77,14.93,14.93,0,0,0-.44,3.27,3.32,3.32,0,0,0,.21,1.17,3.22,3.22,0,0,0,.59,1,3.31,3.31,0,0,0,.92.69,2.47,2.47,0,0,0,1.16.26,8,8,0,0,0,3.07-.59,9.2,9.2,0,0,0,2.56-1.63,11.61,11.61,0,0,0,2-2.48,16.53,16.53,0,0,0,1.49-3.11,19.87,19.87,0,0,0,.93-3.53A24.53,24.53,0,0,0,312,114.77Z" transform="translate(-48.37 -30.49)"/><path class="cls-2" d="M376.45,115a3.38,3.38,0,0,1-.18,1.07,9.8,9.8,0,0,1-.44,1.08,9.15,9.15,0,0,1-.6,1l-.63,1a26.16,26.16,0,0,1-1.88,2.53c-.72.86-1.49,1.69-2.31,2.5s-1.67,1.58-2.53,2.3-1.72,1.35-2.55,1.91l-1.89,1.24a14.11,14.11,0,0,1-1.81,1,12.3,12.3,0,0,1-1.91.66,8.78,8.78,0,0,1-2.19.25,5.77,5.77,0,0,1-3.73-1.16,5.42,5.42,0,0,1-1.26-1.51,12.22,12.22,0,0,1-.94-2.06,20.61,20.61,0,0,1-.69-2.41c-.19-.84-.36-1.68-.48-2.51-.17-1-.33-2-.47-2.78a14,14,0,0,0-.52-2.08,3.68,3.68,0,0,0-.7-1.3,1.41,1.41,0,0,0-1.08-.45,4.09,4.09,0,0,0-1,.11,3.1,3.1,0,0,0-1,.44,7.63,7.63,0,0,0-1.12.94c-.4.41-.88.94-1.42,1.6s-1.17,1.48-1.87,2.44-1.52,2.1-2.46,3.43c-.46.64-1,1.35-1.63,2.13s-1.27,1.51-1.92,2.21a23.35,23.35,0,0,1-1.93,1.85,4.91,4.91,0,0,1-1.66,1q-2.43-.52-2.43-6.06a44.54,44.54,0,0,1,.33-4.45c.11-.91.24-1.85.39-2.84s.33-2,.55-3,.48-1.94.76-2.87a19.13,19.13,0,0,1,1-2.59,3.74,3.74,0,0,1,.58-.87,2.2,2.2,0,0,1,.63-.47,1.92,1.92,0,0,1,.66-.19,5.49,5.49,0,0,1,.7-.05c.3,0,.56.21.79.61a3.46,3.46,0,0,1,.35,1.69,6.89,6.89,0,0,1-.11,1.24,11,11,0,0,1-.31,1.19c-.13.41-.26.85-.41,1.32s-.3,1-.44,1.62-.24,1-.38,1.65-.26,1.23-.38,1.86-.23,1.24-.31,1.84a12.36,12.36,0,0,0-.12,1.61,3.4,3.4,0,0,0,.16,1c.52-.06,1.37-.83,2.55-2.33l2-2.48c.73-.91,1.52-1.9,2.37-3,.62-.81,1.25-1.57,1.86-2.27a15.07,15.07,0,0,1,1.93-1.84,8.71,8.71,0,0,1,2.11-1.24,6.41,6.41,0,0,1,2.48-.46,4.33,4.33,0,0,1,2.39.62,4.59,4.59,0,0,1,1.54,1.72,10.1,10.1,0,0,1,.89,2.61,32,32,0,0,1,.52,3.35c.11,1,.21,2,.31,3.07a10.78,10.78,0,0,0,.6,2.72,4.8,4.8,0,0,0,1.27,2,3.43,3.43,0,0,0,2.38.75,6.53,6.53,0,0,0,2.49-.55,16.87,16.87,0,0,0,2.74-1.54,32.19,32.19,0,0,0,3-2.31q1.53-1.32,3.17-2.9a17.56,17.56,0,0,0,1.39-1.54c.51-.62,1-1.21,1.5-1.78s.94-1.06,1.36-1.47a1.82,1.82,0,0,1,1-.61,1.63,1.63,0,0,1,.54.17A.57.57,0,0,1,376.45,115Z" transform="translate(-48.37 -30.49)"/><path class="cls-2" d="M394.54,108.57a3.08,3.08,0,0,1-.22,1c-.15.42-.31,1-.49,1.72s-.33,1.66-.48,2.79a33.19,33.19,0,0,0-.22,4.22q0,.47,0,2.46t0,5a32.26,32.26,0,0,1-1.62,11,17.54,17.54,0,0,1-4.49,7.09,14.67,14.67,0,0,1-1.78,1.43,12,12,0,0,1-2,1.07,11.11,11.11,0,0,1-2.35.7,16.26,16.26,0,0,1-2.82.23,8.44,8.44,0,0,1-2.7-.5,21.43,21.43,0,0,1-2.91-1.25,27.09,27.09,0,0,1-2.81-1.68c-.9-.61-1.69-1.2-2.39-1.77a17.11,17.11,0,0,1-1.68-1.53c-.41-.46-.62-.77-.62-1a2,2,0,0,1,.26-1,1.07,1.07,0,0,1,1-.43,4.06,4.06,0,0,1,1.77.52c.68.35,1.34.74,2,1.16a21.83,21.83,0,0,0,2.22,1.29c.84.43,1.68.83,2.51,1.2a21.4,21.4,0,0,0,2.35.9,6.26,6.26,0,0,0,1.77.35,9.29,9.29,0,0,0,2.82-.38,6.52,6.52,0,0,0,2-1,6.92,6.92,0,0,0,1.46-1.55c.41-.59.8-1.24,1.19-1.94a12.85,12.85,0,0,0,1.18-2.89,31.06,31.06,0,0,0,.8-3.75c.21-1.36.37-2.82.48-4.37s.19-3.12.22-4.72a27.21,27.21,0,0,1-3.15,2.84,29,29,0,0,1-3.88,2.58,26.13,26.13,0,0,1-4.22,1.85,13.09,13.09,0,0,1-4.15.72,2.88,2.88,0,0,1-1.94-.65,4.64,4.64,0,0,1-1.17-1.54,6.86,6.86,0,0,1-.6-1.79,12.55,12.55,0,0,1-.19-1.42v-.16a7.32,7.32,0,0,1,.37-2.07,18.82,18.82,0,0,1,1-2.48,27.06,27.06,0,0,1,1.36-2.54c.51-.84,1-1.61,1.48-2.31a32.41,32.41,0,0,1,2.93-3.63,29.67,29.67,0,0,1,3.81-3.44,21.22,21.22,0,0,1,4.37-2.57,11.35,11.35,0,0,1,4.63-1,7.61,7.61,0,0,1,2.05.26,5.36,5.36,0,0,1,1.56.72,3.5,3.5,0,0,1,1,1.06A2.52,2.52,0,0,1,394.54,108.57Zm-4.81.78a1.39,1.39,0,0,0-.57-.28,3.7,3.7,0,0,0-.79-.08,7.6,7.6,0,0,0-4.15,1.38,30.93,30.93,0,0,0-3.23,2.86,40,40,0,0,0-2.66,3q-.39.49-.9,1.26c-.34.51-.68,1.07-1,1.69s-.68,1.26-1,1.92-.63,1.32-.9,2a14.94,14.94,0,0,0-.64,1.88,6.69,6.69,0,0,0-.23,1.59,3.92,3.92,0,0,0,1.36.22,6.79,6.79,0,0,0,1.6-.19,14,14,0,0,0,1.6-.5c.54-.2,1.08-.43,1.64-.69l1.71-.78a13.82,13.82,0,0,0,1.66-.85c.59-.35,1.19-.74,1.8-1.15s1.21-.85,1.82-1.3,1.18-.89,1.72-1.32a2.25,2.25,0,0,0,.36-.92c.11-.47.2-1,.29-1.68s.15-1.34.21-2.1l.15-2.24c0-.73.08-1.43.11-2.09S389.71,109.79,389.73,109.35Z" transform="translate(-48.37 -30.49)"/><path class="cls-3" d="M212.87,134.74c-.91-1.91-5.35-10.68-17.2-15.13-14.62-5.49-28.19.24-29.8.94" transform="translate(-48.37 -30.49)"/><path class="cls-3" d="M279.62,69.91c.9,1.91,5.35,10.68,17.19,15.13,14.63,5.49,28.2-.24,29.81-1" transform="translate(-48.37 -30.49)"/></svg>