<?xml version="1.0" standalone="no"?>
<!DOCTYPE svg PUBLIC "-//W3C//DTD SVG 20010904//EN"
 "http://www.w3.org/TR/2001/REC-SVG-20010904/DTD/svg10.dtd">
<svg version="1.0" xmlns="http://www.w3.org/2000/svg"
 width="700.000000pt" height="700.000000pt" viewBox="0 0 700.000000 700.000000"
 preserveAspectRatio="xMidYMid meet">
<metadata>
Created by potrace 1.14, written by Peter Selinger 2001-2017
</metadata>
<g transform="translate(0.000000,700.000000) scale(0.100000,-0.100000)"
fill="#000000" stroke="none">
<path d="M2398 6384 c-85 -20 -155 -59 -219 -123 -248 -248 -133 -667 206
-756 157 -41 312 2 430 119 203 202 172 529 -65 694 -94 66 -237 93 -352 66z"/>
<path d="M5126 5873 c-65 -13 -87 -22 -171 -66 -46 -24 -138 -117 -169 -170
-32 -54 -63 -131 -72 -179 -6 -34 -7 -161 -1 -188 15 -69 23 -92 47 -141 118
-239 390 -351 645 -265 44 15 82 31 85 35 3 4 22 17 42 29 90 55 192 208 215
323 11 49 10 159 -2 224 -13 78 -73 184 -144 254 -129 130 -297 180 -475 144z"/>
<path d="M1215 5793 c-171 -39 -232 -242 -111 -367 136 -139 371 -42 370 153
-1 88 -44 156 -123 196 -34 17 -100 26 -136 18z"/>
<path d="M3807 4884 c-1 -1 -29 -5 -62 -9 -233 -26 -463 -139 -635 -314 -88
-89 -156 -182 -209 -288 -33 -66 -76 -188 -85 -238 -20 -120 -26 -169 -26
-236 l0 -76 88 33 c254 95 532 94 782 -3 371 -144 643 -493 686 -880 3 -35 9
-63 12 -63 14 0 124 68 187 116 224 168 387 450 420 729 8 59 7 239 0 275 -3
14 -9 50 -15 80 -37 202 -144 398 -304 555 -210 208 -462 314 -759 320 -42 1
-78 0 -80 -1z m369 -309 c231 -50 436 -249 489 -475 9 -38 18 -114 18 -148 -1
-70 -47 -103 -105 -75 -30 14 -34 24 -43 108 -28 251 -217 438 -467 461 -75 7
-93 15 -106 51 -13 39 2 71 39 87 35 15 72 13 175 -9z"/>
<path d="M1653 4831 c-115 -28 -215 -85 -303 -171 -81 -79 -114 -128 -155
-227 -34 -84 -37 -104 -41 -223 -7 -227 86 -417 271 -551 115 -84 229 -118
390 -120 273 -2 518 178 613 450 32 93 39 265 15 359 -55 216 -222 395 -434
467 -108 36 -248 42 -356 16z m371 -261 c95 -40 171 -141 180 -237 4 -42 -15
-87 -39 -97 -55 -21 -97 12 -109 84 -4 23 -16 54 -28 70 -22 31 -82 60 -122
60 -26 0 -66 41 -66 67 0 8 8 28 17 44 16 26 23 29 69 29 30 0 72 -8 98 -20z"/>
<path d="M3150 3674 c-258 -34 -470 -153 -632 -355 -177 -221 -245 -534 -175
-809 110 -431 482 -722 922 -722 258 0 479 93 668 279 230 227 326 565 251
883 -41 173 -114 307 -238 438 -62 65 -183 162 -202 162 -4 0 -15 6 -23 14
-23 19 -155 72 -229 91 -35 9 -101 18 -145 21 -45 3 -86 7 -92 8 -5 1 -53 -3
-105 -10z m423 -313 c78 -27 136 -62 187 -112 89 -88 146 -206 155 -324 7 -77
-16 -115 -69 -115 -47 0 -66 27 -76 104 -23 186 -148 307 -340 330 -30 4 -62
14 -72 23 -25 22 -23 78 3 104 19 19 29 21 88 16 36 -3 92 -14 124 -26z"/>
<path d="M5552 2936 c-40 -14 -95 -64 -117 -106 -9 -17 -16 -56 -18 -88 -5
-165 167 -277 312 -202 204 105 131 413 -96 409 -26 0 -63 -6 -81 -13z"/>
<path d="M1370 2131 c-88 -25 -112 -35 -173 -75 -251 -165 -337 -484 -202
-754 38 -74 126 -174 195 -219 47 -31 123 -65 175 -78 17 -5 37 -10 45 -12 8
-2 56 -4 105 -5 100 -1 175 17 265 62 54 28 70 39 141 103 63 59 142 192 155
264 3 16 9 44 13 63 11 51 4 184 -14 243 -29 97 -78 179 -150 253 -145 148
-363 208 -555 155z"/>
<path d="M5244 2065 c-189 -34 -362 -149 -472 -312 -23 -34 -42 -64 -42 -66 0
-3 -10 -26 -22 -53 -12 -27 -23 -51 -23 -54 -1 -3 -9 -41 -19 -84 -26 -110
-18 -261 18 -369 80 -236 256 -407 494 -479 96 -29 272 -32 371 -7 377 95 617
465 545 841 -54 283 -279 517 -556 578 -78 17 -213 19 -294 5z m354 -286 c83
-27 158 -97 198 -184 47 -104 39 -186 -22 -211 -61 -26 -110 12 -120 92 -9 80
-64 135 -145 149 -62 10 -88 26 -99 60 -13 39 -1 76 31 99 26 18 94 16 157 -5z"/>
<path d="M2647 1338 c-77 -21 -147 -119 -149 -207 -3 -121 110 -227 230 -217
148 13 239 147 192 285 -29 88 -96 139 -188 146 -26 2 -64 -1 -85 -7z"/>
</g>
</svg>
